<svg width="28" height="27" viewBox="0 0 28 27" fill="none" xmlns="http://www.w3.org/2000/svg">
<g clip-path="url(#clip0_311_1119)">
<path fill-rule="evenodd" clip-rule="evenodd" d="M12.4941 3.99788C11.0459 4.16963 9.99341 4.543 8.87369 5.15533C8.04511 5.61084 7.17173 6.30531 6.53723 6.98485C4.71583 8.91144 3.72302 11.7864 4.03654 14.5792C4.58893 19.4704 9.03045 23.6521 14.6141 23.0099C19.4736 22.4573 23.6838 18.0516 23.0418 12.4361C22.8925 11.0919 22.4595 9.84487 21.8848 8.84424C20.0634 5.66312 16.5101 3.51997 12.5016 3.99788H12.4941ZM12.7703 6.79816C9.33651 7.20887 6.34314 10.3078 6.83582 14.2955C7.25384 17.7305 10.3293 20.6577 14.3155 20.2022C17.7194 19.8139 20.7203 16.6776 20.235 12.7124C20.0036 10.8231 19.1527 9.4715 17.8762 8.33645C16.7565 7.33582 14.838 6.55174 12.7703 6.79816Z" fill="#FBFBFB"/>
<path fill-rule="evenodd" clip-rule="evenodd" d="M12.9941 7.90335C10.0679 8.21698 7.61199 10.7559 7.94044 14.0789C8.2241 16.9613 10.8368 19.433 14.0914 19.1045C16.9877 18.8133 19.466 16.2295 19.1376 12.9588C18.8464 10.0689 16.2562 7.56732 13.0015 7.91082L12.9941 7.90335ZM14.4124 13.2052C14.0914 13.1081 13.957 13.0335 13.5763 13.0111C12.3596 12.9364 12.4044 11.7565 12.8672 11.3309C13.2777 10.9575 13.9272 11.0173 14.2556 11.3981C14.6662 11.8686 14.2556 12.6004 15.1589 12.5107C15.5321 12.2419 15.435 12.2419 15.4724 11.7341C15.4052 11.6595 15.3828 11.5176 15.3455 11.3832C15.1663 10.8231 14.6139 10.3228 14.0167 10.1809C14.0093 9.71047 14.0839 9.14294 13.5315 9.14294C12.9866 9.14294 13.0463 9.71047 13.0463 10.1809C11.9714 10.4124 11.113 11.8312 11.8669 13.0409C12.6208 14.2581 13.5614 13.7951 14.1138 14.1835C14.3079 14.3179 14.5094 14.6091 14.502 14.975C14.4945 15.5799 13.9197 16.11 13.2404 15.8935C12.3297 15.6097 12.7701 14.7734 12.2924 14.5344C11.9863 14.3776 11.6653 14.5792 11.6056 14.8555C11.4787 15.4156 11.8744 16.0652 12.2775 16.4386C12.5462 16.685 12.7328 16.6776 13.0314 16.8568C13.0762 17.3123 12.9568 17.8724 13.5315 17.8724C14.0839 17.8724 14.0093 17.2899 14.0167 16.8344C15.2932 16.4984 15.8605 15.0646 15.1812 13.952C14.8528 13.4068 14.5318 13.377 14.4049 13.2127L14.4124 13.2052Z" fill="#FBFBFB"/>
<path fill-rule="evenodd" clip-rule="evenodd" d="M23.0643 5.67864C22.6836 5.6637 21.7579 5.52182 21.4967 5.67117C21.0637 5.91013 21.1533 6.55979 21.6086 6.69421C21.8848 6.77635 22.7806 6.79875 23.1314 6.82862C24.9678 6.9705 24.8334 7.03024 24.9454 5.41728C24.9752 4.96923 25.0797 4.22996 25.0574 3.81925C25.035 3.35627 24.5199 3.06504 24.1467 3.37867C23.8331 3.64003 23.9302 4.32703 23.863 4.79001C23.6764 4.67054 23.3703 4.25236 23.1837 4.06567C16.8387 -2.43845 5.70872 -0.9823 1.43142 7.55296C0.028042 10.3532 -0.412378 13.9749 0.580433 17.2755C0.692405 17.6489 0.759588 18.0521 1.08804 18.1716C1.51353 18.3284 1.8793 17.9924 1.84944 17.5966C1.84198 17.507 1.40902 16.1032 1.29705 15.2519C0.625222 10.3458 2.80493 5.93253 6.54477 3.31147C10.3443 0.653064 15.7264 0.354368 19.9589 2.93809C20.8099 3.46081 21.7355 4.17769 22.3924 4.86469C22.5417 5.0215 22.9896 5.48448 23.0792 5.69357L23.0643 5.67864Z" fill="#FBFBFB"/>
<path fill-rule="evenodd" clip-rule="evenodd" d="M3.15541 22.5169C3.09569 22.2929 3.17033 22.39 3.06583 22.2779C3.06583 22.2779 2.58808 21.9942 3.10315 21.6955C2.99118 21.4939 2.94639 21.6133 2.96879 21.3445C3.29724 21.3669 3.0285 21.3893 3.36442 21.6507C3.28231 21.4565 3.47639 21.2997 3.7078 21.2922L3.74512 21.5237C3.74512 21.5835 3.73019 21.6581 3.72273 21.7254C3.84216 21.6581 3.76751 21.6133 3.9616 21.576C3.9392 21.8672 3.84216 21.9419 3.50625 21.8896C3.50625 22.0838 3.52118 21.9867 3.46146 22.1286C3.39428 22.2854 3.40921 22.1211 3.34949 22.3526C4.23033 23.5474 6.08905 24.8542 7.4775 25.5711C12.031 27.9158 17.8236 27.3259 21.7874 24.1821C22.2726 23.8013 23.4968 22.7708 23.676 22.3526C23.6611 22.2481 23.7208 22.3676 23.6014 22.2929C23.1311 22.0166 23.4595 21.8075 23.5864 21.6432C23.4745 21.5461 23.4595 21.5088 23.4446 21.3296C23.7133 21.3819 23.7208 21.4789 23.8178 21.6357C23.9223 21.3968 23.8701 21.2922 24.1985 21.2773C24.2732 21.4491 24.1985 21.5387 24.2508 21.6581C24.5344 21.4416 25.4526 19.866 25.7139 19.3208C26.117 18.4845 26.4678 17.5063 26.6992 16.4832C27.2143 14.2206 27.1173 11.7713 26.4678 9.62067C26.3409 9.2025 26.1095 8.50056 25.4974 8.87393C25.0122 9.16516 25.3481 9.77002 25.4825 10.2629C25.7811 11.383 25.9304 12.4956 25.908 13.7278C25.8035 19.6643 21.2947 25.1006 14.89 25.7876C12.5461 26.0415 10.1947 25.586 8.35834 24.7198C7.44764 24.2941 6.6713 23.8013 5.97708 23.2711C5.61131 22.9873 4.15568 21.7403 4.00639 21.3146C4.35723 21.3221 5.29779 21.4565 5.54413 21.3445C5.99948 21.1354 5.92483 20.4708 5.49934 20.314C5.23807 20.2169 2.72991 20.0452 2.53583 20.1273C2.13273 20.2991 2.17752 20.8517 2.1402 21.337C2.10288 21.8523 2.06555 22.3526 2.02076 22.8753C1.90879 24.2195 3.43907 23.9656 3.14794 22.4945L3.15541 22.5169Z" fill="#FBFBFB"/>
<path fill-rule="evenodd" clip-rule="evenodd" d="M3.15573 22.5173C3.21545 22.4202 3.20798 22.3381 3.21545 22.2186C3.22291 22.2261 3.23784 22.2261 3.24531 22.2485L3.30503 22.3007C3.31249 22.3082 3.32742 22.3231 3.33489 22.3231C3.34235 22.3306 3.35728 22.3381 3.36474 22.3455C3.417 22.114 3.40207 22.2783 3.47672 22.1215C3.53643 21.9796 3.5215 22.0692 3.5215 21.8826C3.84995 21.9348 3.95446 21.8601 3.97685 21.5689C3.78277 21.6063 3.85742 21.6511 3.73798 21.7183C3.74545 21.6585 3.76038 21.5764 3.76038 21.5166L3.72305 21.2852C3.49164 21.2926 3.30503 21.4494 3.37967 21.6436C3.04376 21.3822 3.31249 21.3598 2.98404 21.3374C2.96165 21.6063 3.00644 21.4868 3.11841 21.6884C2.60334 21.9796 3.08108 22.2634 3.08108 22.2709C3.19305 22.3829 3.11094 22.2858 3.17066 22.5098L3.15573 22.5173Z" fill="#2C2C2C"/>
<path fill-rule="evenodd" clip-rule="evenodd" d="M23.6762 22.3531C23.833 22.2859 23.8553 22.1963 23.9748 22.0619C24.042 21.9872 24.042 21.9947 24.1091 21.9051C24.1987 21.7781 24.1913 21.7856 24.251 21.6736C24.1987 21.5466 24.2734 21.457 24.1987 21.2927C23.8703 21.3077 23.9151 21.4047 23.818 21.6512C23.721 21.4943 23.7135 21.3973 23.4448 21.345C23.4597 21.5242 23.4746 21.5616 23.5866 21.6586C23.4597 21.8229 23.1313 22.032 23.6015 22.3083C23.7284 22.383 23.6613 22.256 23.6762 22.368V22.3531Z" fill="#2C2C2C"/>
</g>
<defs>
<clipPath id="clip0_311_1119">
<rect width="27" height="27" fill="white" transform="translate(0.0351562)"/>
</clipPath>
</defs>
</svg>
