<svg width="23" height="22" viewBox="0 0 23 22" fill="none" xmlns="http://www.w3.org/2000/svg">
<g clip-path="url(#clip0_311_1144)">
<path fill-rule="evenodd" clip-rule="evenodd" d="M4.25969 20.3447V12.9868C4.25969 12.435 4.29701 12.1407 4.89416 12.1407C5.86452 12.1039 6.90953 12.1407 7.8799 12.1407C8.85026 12.1407 9.89527 12.1039 10.8656 12.1407C11.4255 12.1407 11.5001 12.435 11.5001 12.95V20.3447H13.8141C13.8141 19.241 13.8141 18.1741 13.8141 17.0704C13.8141 14.8263 13.2916 13.4651 16.1653 12.7661C17.285 12.5086 18.0687 12.5453 19.2257 12.4718C19.3377 11.9935 19.2257 10.2276 19.2257 9.6022C19.2257 8.64568 19.2257 8.97678 17.8821 8.05705C15.6428 6.54869 12.9557 5.00354 10.7164 3.49518C10.3058 3.20086 10.0072 3.53197 9.70866 3.71591L3.40129 7.68916C2.80414 8.05705 2.20699 8.42494 1.60984 8.82963C1.23663 9.08715 1.34859 9.23431 1.34859 10.0069V17.2912C1.34859 20.6758 1.0127 20.2711 2.7295 20.2711C3.252 20.2711 3.77451 20.2711 4.25969 20.2711V20.3447ZM10.0819 5.51859C8.96223 5.66575 7.95454 6.73264 8.17847 8.05705C8.36508 9.16073 9.41009 10.1173 10.7537 9.89652C11.836 9.71257 12.8437 8.68247 12.6198 7.35805C12.4332 6.25437 11.4255 5.37143 10.0819 5.51859Z" fill="white"/>
<path fill-rule="evenodd" clip-rule="evenodd" d="M10.194 0.0368913L7.50679 1.7292C7.05893 2.02351 6.64839 2.28104 6.16321 2.57535L0.788878 5.95997C-0.181487 6.5486 0.00512148 6.32786 0.00512148 7.39475C0.00512148 7.72585 -0.069522 8.13054 0.266374 8.2409C0.564948 8.31448 0.8262 8.05696 1.01281 7.94659L5.04356 5.40813C5.49142 5.11381 5.93928 4.85629 6.38714 4.56198L9.7461 2.4282C10.6045 1.91315 10.3432 2.0603 11.8734 2.98004C14.1127 4.34124 16.3521 5.8496 18.5914 7.2108C19.0392 7.46833 19.5244 7.76264 19.9349 8.05696C20.9053 8.75595 20.7187 7.32117 20.7187 6.95328C20.7187 6.47502 20.756 6.40144 20.3828 6.1807C20.1589 6.03355 19.9349 5.88639 19.711 5.73923C19.2258 5.44492 18.8153 5.18739 18.3674 4.89308L15.6803 3.20077C14.7845 2.61214 13.8888 2.09709 12.9931 1.50846L10.9777 0.220838C10.7538 0.0736806 10.4552 -0.183845 10.1566 -0.0734766L10.194 0.0368913Z" fill="white"/>
<path fill-rule="evenodd" clip-rule="evenodd" d="M5.34201 20.3445C5.97648 20.3445 10.1565 20.3813 10.4178 20.3077V13.2074H5.34201C5.26737 13.6121 5.34201 19.388 5.30469 20.3445H5.34201Z" fill="white"/>
<path fill-rule="evenodd" clip-rule="evenodd" d="M17.8826 13.5755C17.1735 13.6491 16.2778 13.7595 15.6806 14.0538C14.9342 14.3849 14.561 14.9367 15.4567 15.415C16.6137 16.0404 18.629 16.1508 20.0846 16.0036C20.831 15.93 21.6521 15.7829 22.2492 15.5254C23.0703 15.1943 23.3316 14.6424 22.5105 14.1642C21.4282 13.5387 19.3008 13.4284 17.8826 13.5755Z" fill="white"/>
<path fill-rule="evenodd" clip-rule="evenodd" d="M22.9953 18.3582C21.4651 18.9468 20.756 19.1307 18.9646 19.1307C17.8822 19.1307 16.8372 19.0204 15.7922 18.726C15.4936 18.6157 15.1577 18.4685 14.8965 18.3949C14.8965 18.9836 14.8965 19.0939 15.3443 19.3515C16.9119 20.308 21.0919 20.2712 22.5101 19.3883C22.9207 19.1307 22.9953 19.0204 22.958 18.3949L22.9953 18.3582Z" fill="white"/>
<path fill-rule="evenodd" clip-rule="evenodd" d="M19.0392 17.144C18.2181 17.144 17.509 17.1072 16.6879 16.96C15.5683 16.7393 15.4563 16.5554 14.8965 16.4082C14.8965 16.9968 14.8965 17.1072 15.307 17.3647C16.6506 18.2109 19.7483 18.2109 21.3158 17.843C22.5848 17.5487 22.9953 17.3279 22.958 16.4082C21.7637 16.96 20.4947 17.1808 19.0019 17.1808L19.0392 17.144Z" fill="white"/>
<path fill-rule="evenodd" clip-rule="evenodd" d="M14.8965 20.3444C14.8965 20.8962 14.9338 21.0802 15.3443 21.3009C16.7626 22.1471 19.8603 22.1103 21.5024 21.7056C22.2862 21.5217 23.1446 21.2273 22.958 20.3076C21.5771 21.117 18.5167 21.2273 16.7626 20.8962C15.6056 20.6755 15.307 20.418 14.8965 20.3076V20.3444Z" fill="white"/>
<path fill-rule="evenodd" clip-rule="evenodd" d="M10.1192 6.62216C8.58898 7.02685 9.26077 9.27099 10.7536 8.82952C12.2092 8.38805 11.612 6.21748 10.1192 6.62216Z" fill="white"/>
</g>
<defs>
<clipPath id="clip0_311_1144">
<rect width="23" height="22" fill="white"/>
</clipPath>
</defs>
</svg>
