<svg width="89" height="18" viewBox="0 0 89 18" fill="none" xmlns="http://www.w3.org/2000/svg">
<g clip-path="url(#clip0_314_315)">
<path d="M14 13V11" stroke="#B3530D" stroke-linecap="round" stroke-linejoin="round"/>
<path d="M12 11H15" stroke="#B3530D" stroke-linecap="round" stroke-linejoin="round"/>
<path d="M6 13V10" stroke="#B3530D" stroke-linecap="round" stroke-linejoin="round"/>
<path d="M5 10H7" stroke="#B3530D" stroke-linecap="round" stroke-linejoin="round"/>
<path d="M10 13V9" stroke="#B3530D" stroke-linecap="round" stroke-linejoin="round"/>
<path d="M8 7H11" stroke="#B3530D" stroke-linecap="round" stroke-linejoin="round"/>
<path d="M14 9V5" stroke="#B3530D" stroke-linecap="round" stroke-linejoin="round"/>
<path d="M10 7V5" stroke="#B3530D" stroke-linecap="round" stroke-linejoin="round"/>
<path d="M6 8V5" stroke="#B3530D" stroke-linecap="round" stroke-linejoin="round"/>
</g>
<path d="M28.408 4.696V13H27.316V6.808L24.556 13H23.788L21.016 6.796V13H19.924V4.696H21.1L24.172 11.56L27.244 4.696H28.408ZM33.4879 13.108C32.8719 13.108 32.3119 12.968 31.8079 12.688C31.3119 12.408 30.9199 12.012 30.6319 11.5C30.3519 10.98 30.2119 10.38 30.2119 9.7C30.2119 9.028 30.3559 8.436 30.6439 7.924C30.9399 7.404 31.3399 7.008 31.8439 6.736C32.3479 6.456 32.9119 6.316 33.5359 6.316C34.1599 6.316 34.7239 6.456 35.2279 6.736C35.7319 7.008 36.1279 7.4 36.4159 7.912C36.7119 8.424 36.8599 9.02 36.8599 9.7C36.8599 10.38 36.7079 10.98 36.4039 11.5C36.1079 12.012 35.7039 12.408 35.1919 12.688C34.6799 12.968 34.1119 13.108 33.4879 13.108ZM33.4879 12.148C33.8799 12.148 34.2479 12.056 34.5919 11.872C34.9359 11.688 35.2119 11.412 35.4199 11.044C35.6359 10.676 35.7439 10.228 35.7439 9.7C35.7439 9.172 35.6399 8.724 35.4319 8.356C35.2239 7.988 34.9519 7.716 34.6159 7.54C34.2799 7.356 33.9159 7.264 33.5239 7.264C33.1239 7.264 32.7559 7.356 32.4199 7.54C32.0919 7.716 31.8279 7.988 31.6279 8.356C31.4279 8.724 31.3279 9.172 31.3279 9.7C31.3279 10.236 31.4239 10.688 31.6159 11.056C31.8159 11.424 32.0799 11.7 32.4079 11.884C32.7359 12.06 33.0959 12.148 33.4879 12.148ZM39.7477 7.492C39.9397 7.116 40.2117 6.824 40.5637 6.616C40.9237 6.408 41.3597 6.304 41.8717 6.304V7.432H41.5837C40.3597 7.432 39.7477 8.096 39.7477 9.424V13H38.6557V6.424H39.7477V7.492ZM49.4923 9.46C49.4923 9.668 49.4803 9.888 49.4563 10.12H44.2003C44.2403 10.768 44.4603 11.276 44.8603 11.644C45.2683 12.004 45.7603 12.184 46.3363 12.184C46.8083 12.184 47.2003 12.076 47.5123 11.86C47.8323 11.636 48.0563 11.34 48.1843 10.972H49.3603C49.1843 11.604 48.8323 12.12 48.3043 12.52C47.7763 12.912 47.1203 13.108 46.3363 13.108C45.7123 13.108 45.1523 12.968 44.6563 12.688C44.1683 12.408 43.7843 12.012 43.5043 11.5C43.2243 10.98 43.0843 10.38 43.0843 9.7C43.0843 9.02 43.2203 8.424 43.4923 7.912C43.7643 7.4 44.1443 7.008 44.6323 6.736C45.1283 6.456 45.6963 6.316 46.3363 6.316C46.9603 6.316 47.5123 6.452 47.9923 6.724C48.4723 6.996 48.8403 7.372 49.0963 7.852C49.3603 8.324 49.4923 8.86 49.4923 9.46ZM48.3643 9.232C48.3643 8.816 48.2723 8.46 48.0883 8.164C47.9043 7.86 47.6523 7.632 47.3323 7.48C47.0203 7.32 46.6723 7.24 46.2883 7.24C45.7363 7.24 45.2643 7.416 44.8723 7.768C44.4883 8.12 44.2683 8.608 44.2123 9.232H48.3643ZM57.5289 7.324H56.1489V13H55.0569V7.324H54.2049V6.424H55.0569V5.956C55.0569 5.22 55.2449 4.684 55.6209 4.348C56.0049 4.004 56.6169 3.832 57.4569 3.832V4.744C56.9769 4.744 56.6369 4.84 56.4369 5.032C56.2449 5.216 56.1489 5.524 56.1489 5.956V6.424H57.5289V7.324ZM59.7261 5.356C59.5181 5.356 59.3421 5.284 59.1981 5.14C59.0541 4.996 58.9821 4.82 58.9821 4.612C58.9821 4.404 59.0541 4.228 59.1981 4.084C59.3421 3.94 59.5181 3.868 59.7261 3.868C59.9261 3.868 60.0941 3.94 60.2301 4.084C60.3741 4.228 60.4461 4.404 60.4461 4.612C60.4461 4.82 60.3741 4.996 60.2301 5.14C60.0941 5.284 59.9261 5.356 59.7261 5.356ZM60.2541 6.424V13H59.1621V6.424H60.2541ZM63.5673 4.12V13H62.4753V4.12H63.5673ZM67.1204 7.324V11.2C67.1204 11.52 67.1884 11.748 67.3244 11.884C67.4604 12.012 67.6964 12.076 68.0324 12.076H68.8364V13H67.8524C67.2444 13 66.7884 12.86 66.4844 12.58C66.1804 12.3 66.0284 11.84 66.0284 11.2V7.324H65.1764V6.424H66.0284V4.768H67.1204V6.424H68.8364V7.324H67.1204ZM76.5195 9.46C76.5195 9.668 76.5075 9.888 76.4835 10.12H71.2275C71.2675 10.768 71.4875 11.276 71.8875 11.644C72.2955 12.004 72.7875 12.184 73.3635 12.184C73.8355 12.184 74.2275 12.076 74.5395 11.86C74.8595 11.636 75.0835 11.34 75.2115 10.972H76.3875C76.2115 11.604 75.8595 12.12 75.3315 12.52C74.8035 12.912 74.1475 13.108 73.3635 13.108C72.7395 13.108 72.1795 12.968 71.6835 12.688C71.1955 12.408 70.8115 12.012 70.5315 11.5C70.2515 10.98 70.1115 10.38 70.1115 9.7C70.1115 9.02 70.2475 8.424 70.5195 7.912C70.7915 7.4 71.1715 7.008 71.6595 6.736C72.1555 6.456 72.7235 6.316 73.3635 6.316C73.9875 6.316 74.5395 6.452 75.0195 6.724C75.4995 6.996 75.8675 7.372 76.1235 7.852C76.3875 8.324 76.5195 8.86 76.5195 9.46ZM75.3915 9.232C75.3915 8.816 75.2995 8.46 75.1155 8.164C74.9315 7.86 74.6795 7.632 74.3595 7.48C74.0475 7.32 73.6995 7.24 73.3155 7.24C72.7635 7.24 72.2915 7.416 71.8995 7.768C71.5155 8.12 71.2955 8.608 71.2395 9.232H75.3915ZM79.4129 7.492C79.6049 7.116 79.8769 6.824 80.2289 6.616C80.5889 6.408 81.0249 6.304 81.5369 6.304V7.432H81.2489C80.0249 7.432 79.4129 8.096 79.4129 9.424V13H78.3209V6.424H79.4129V7.492ZM85.4854 13.108C84.9814 13.108 84.5294 13.024 84.1294 12.856C83.7294 12.68 83.4134 12.44 83.1814 12.136C82.9494 11.824 82.8214 11.468 82.7974 11.068H83.9254C83.9574 11.396 84.1094 11.664 84.3814 11.872C84.6614 12.08 85.0254 12.184 85.4734 12.184C85.8894 12.184 86.2174 12.092 86.4574 11.908C86.6974 11.724 86.8174 11.492 86.8174 11.212C86.8174 10.924 86.6894 10.712 86.4334 10.576C86.1774 10.432 85.7814 10.292 85.2454 10.156C84.7574 10.028 84.3574 9.9 84.0454 9.772C83.7414 9.636 83.4774 9.44 83.2534 9.184C83.0374 8.92 82.9294 8.576 82.9294 8.152C82.9294 7.816 83.0294 7.508 83.2294 7.228C83.4294 6.948 83.7134 6.728 84.0814 6.568C84.4494 6.4 84.8694 6.316 85.3414 6.316C86.0694 6.316 86.6574 6.5 87.1054 6.868C87.5534 7.236 87.7934 7.74 87.8254 8.38H86.7334C86.7094 8.036 86.5694 7.76 86.3134 7.552C86.0654 7.344 85.7294 7.24 85.3054 7.24C84.9134 7.24 84.6014 7.324 84.3694 7.492C84.1374 7.66 84.0214 7.88 84.0214 8.152C84.0214 8.368 84.0894 8.548 84.2254 8.692C84.3694 8.828 84.5454 8.94 84.7534 9.028C84.9694 9.108 85.2654 9.2 85.6414 9.304C86.1134 9.432 86.4974 9.56 86.7934 9.688C87.0894 9.808 87.3414 9.992 87.5494 10.24C87.7654 10.488 87.8774 10.812 87.8854 11.212C87.8854 11.572 87.7854 11.896 87.5854 12.184C87.3854 12.472 87.1014 12.7 86.7334 12.868C86.3734 13.028 85.9574 13.108 85.4854 13.108Z" fill="#C4C4C4"/>
<defs>
<clipPath id="clip0_314_315">
<rect width="15" height="15" fill="white" transform="translate(0 1)"/>
</clipPath>
</defs>
</svg>
