<svg width="48" height="18" viewBox="0 0 48 18" fill="none" xmlns="http://www.w3.org/2000/svg">
<path d="M7.368 4.636V13H6.276V9.208H2.016V13H0.924V4.636H2.016V8.308H6.276V4.636H7.368ZM12.4606 13.108C11.8446 13.108 11.2846 12.968 10.7806 12.688C10.2846 12.408 9.89259 12.012 9.60459 11.5C9.32459 10.98 9.18459 10.38 9.18459 9.7C9.18459 9.028 9.32859 8.436 9.61659 7.924C9.91259 7.404 10.3126 7.008 10.8166 6.736C11.3206 6.456 11.8846 6.316 12.5086 6.316C13.1326 6.316 13.6966 6.456 14.2006 6.736C14.7046 7.008 15.1006 7.4 15.3886 7.912C15.6846 8.424 15.8326 9.02 15.8326 9.7C15.8326 10.38 15.6806 10.98 15.3766 11.5C15.0806 12.012 14.6766 12.408 14.1646 12.688C13.6526 12.968 13.0846 13.108 12.4606 13.108ZM12.4606 12.148C12.8526 12.148 13.2206 12.056 13.5646 11.872C13.9086 11.688 14.1846 11.412 14.3926 11.044C14.6086 10.676 14.7166 10.228 14.7166 9.7C14.7166 9.172 14.6126 8.724 14.4046 8.356C14.1966 7.988 13.9246 7.716 13.5886 7.54C13.2526 7.356 12.8886 7.264 12.4966 7.264C12.0966 7.264 11.7286 7.356 11.3926 7.54C11.0646 7.716 10.8006 7.988 10.6006 8.356C10.4006 8.724 10.3006 9.172 10.3006 9.7C10.3006 10.236 10.3966 10.688 10.5886 11.056C10.7886 11.424 11.0526 11.7 11.3806 11.884C11.7086 12.06 12.0686 12.148 12.4606 12.148ZM23.4604 6.424V13H22.3684V12.028C22.1604 12.364 21.8684 12.628 21.4924 12.82C21.1244 13.004 20.7164 13.096 20.2684 13.096C19.7564 13.096 19.2964 12.992 18.8884 12.784C18.4804 12.568 18.1564 12.248 17.9164 11.824C17.6844 11.4 17.5684 10.884 17.5684 10.276V6.424H18.6484V10.132C18.6484 10.78 18.8124 11.28 19.1404 11.632C19.4684 11.976 19.9164 12.148 20.4844 12.148C21.0684 12.148 21.5284 11.968 21.8644 11.608C22.2004 11.248 22.3684 10.724 22.3684 10.036V6.424H23.4604ZM26.7562 7.492C26.9482 7.116 27.2202 6.824 27.5722 6.616C27.9322 6.408 28.3682 6.304 28.8802 6.304V7.432H28.5922C27.3682 7.432 26.7562 8.096 26.7562 9.424V13H25.6642V6.424H26.7562V7.492ZM32.8287 13.108C32.3247 13.108 31.8727 13.024 31.4727 12.856C31.0727 12.68 30.7567 12.44 30.5247 12.136C30.2927 11.824 30.1647 11.468 30.1407 11.068H31.2687C31.3007 11.396 31.4527 11.664 31.7247 11.872C32.0047 12.08 32.3687 12.184 32.8167 12.184C33.2327 12.184 33.5607 12.092 33.8007 11.908C34.0407 11.724 34.1607 11.492 34.1607 11.212C34.1607 10.924 34.0327 10.712 33.7767 10.576C33.5207 10.432 33.1247 10.292 32.5887 10.156C32.1007 10.028 31.7007 9.9 31.3887 9.772C31.0847 9.636 30.8207 9.44 30.5967 9.184C30.3807 8.92 30.2727 8.576 30.2727 8.152C30.2727 7.816 30.3727 7.508 30.5727 7.228C30.7727 6.948 31.0567 6.728 31.4247 6.568C31.7927 6.4 32.2127 6.316 32.6847 6.316C33.4127 6.316 34.0007 6.5 34.4487 6.868C34.8967 7.236 35.1367 7.74 35.1687 8.38H34.0767C34.0527 8.036 33.9127 7.76 33.6567 7.552C33.4087 7.344 33.0727 7.24 32.6487 7.24C32.2567 7.24 31.9447 7.324 31.7127 7.492C31.4807 7.66 31.3647 7.88 31.3647 8.152C31.3647 8.368 31.4327 8.548 31.5687 8.692C31.7127 8.828 31.8887 8.94 32.0967 9.028C32.3127 9.108 32.6087 9.2 32.9847 9.304C33.4567 9.432 33.8407 9.56 34.1367 9.688C34.4327 9.808 34.6847 9.992 34.8927 10.24C35.1087 10.488 35.2207 10.812 35.2287 11.212C35.2287 11.572 35.1287 11.896 34.9287 12.184C34.7287 12.472 34.4447 12.7 34.0767 12.868C33.7167 13.028 33.3007 13.108 32.8287 13.108Z" fill="#C4C4C4"/>
<path d="M42 8L45 11L48 8H42Z" fill="#C4C4C4"/>
</svg>
