<svg width="17" height="17" viewBox="0 0 17 17" fill="none" xmlns="http://www.w3.org/2000/svg">
<path d="M14.7713 11.8105C14.5982 12.1351 14.4035 12.4452 14.1835 12.7373C12.8888 14.4683 10.8224 15.5935 8.49638 15.5935C4.57996 15.5935 1.40283 12.4163 1.40283 8.49992C1.40283 4.5835 4.57996 1.40637 8.49638 1.40637C8.99044 1.40637 9.47368 1.45686 9.9425 1.55423M10.3139 1.64078C10.5988 1.71651 10.8801 1.81028 11.1506 1.91846L10.3139 1.64078ZM11.3922 2.01944C11.6555 2.13484 11.9079 2.26827 12.1495 2.41613L11.3922 2.01944ZM12.3767 2.56038C12.6075 2.71185 12.8311 2.87773 13.0403 3.05444L12.3767 2.56038ZM13.3937 3.37179C13.657 3.62423 13.9022 3.8947 14.1258 4.18681L13.3937 3.37179ZM14.3926 4.55465C14.5766 4.82873 14.7425 5.11363 14.8867 5.41295L14.3926 4.55465ZM15.0742 5.83488C15.2005 6.14502 15.305 6.46598 15.3844 6.79415L15.0742 5.83488ZM15.4529 7.10429C15.5431 7.55508 15.5899 8.02389 15.5899 8.49992L15.4529 7.10429ZM15.5827 8.84613C15.5683 9.1743 15.5286 9.49886 15.4673 9.81621L15.5827 8.84613ZM15.4024 10.13C15.305 10.5483 15.168 10.9522 15.0021 11.3345L15.4024 10.13Z" stroke="white" stroke-width="0.699954"/>
<path fill-rule="evenodd" clip-rule="evenodd" d="M8.13588 4.02824C6.04063 4.28428 4.39256 6.28577 5.30495 8.66591C5.68001 9.64682 7.42184 11.843 8.16112 12.7302C8.36668 12.9754 8.50011 13.1377 8.75616 12.8203C8.8932 12.6472 9.01221 12.4814 9.16728 12.283C9.31513 12.0955 9.44496 11.9116 9.60003 11.7096C10.278 10.8225 11.6664 9.02654 11.8792 8.01318C12.3516 5.75204 10.3249 3.76137 8.13588 4.02824ZM8.18997 6.09824C7.56609 6.24971 6.98548 6.89884 7.20907 7.71385C7.37135 8.30168 8.0313 8.84262 8.82107 8.64788C9.42693 8.49642 9.9823 7.83647 9.77674 7.03948C9.62527 6.44444 8.96893 5.91071 8.18637 6.10185L8.18997 6.09824Z" fill="white"/>
</svg>
