<svg width="12" height="12" viewBox="0 0 12 12" fill="none" xmlns="http://www.w3.org/2000/svg">
<path d="M8.99996 2.23996C8.20431 1.44431 7.12518 0.997314 5.99996 0.997314C4.87475 0.997314 3.79561 1.44431 2.99996 2.23996C2.20432 3.0356 1.75732 4.11474 1.75732 5.23995C1.75732 6.36517 2.20432 7.4443 2.99996 8.23995L5.63496 10.88C5.68145 10.9268 5.73675 10.964 5.79768 10.9894C5.85861 11.0148 5.92396 11.0279 5.98996 11.0279C6.05597 11.0279 6.12132 11.0148 6.18225 10.9894C6.24318 10.964 6.29848 10.9268 6.34496 10.88L8.99996 8.21495C9.79229 7.42262 10.2374 6.34798 10.2374 5.22745C10.2374 4.10693 9.79229 3.03229 8.99996 2.23996ZM8.28496 7.49995L5.99996 9.79495L3.71496 7.49995C3.26354 7.04811 2.9562 6.47258 2.83181 5.8461C2.70742 5.21962 2.77156 4.57033 3.01612 3.9803C3.26067 3.39026 3.67467 2.88598 4.20578 2.53119C4.73689 2.17641 5.36126 1.98705 5.99996 1.98705C6.63867 1.98705 7.26304 2.17641 7.79415 2.53119C8.32526 2.88598 8.73925 3.39026 8.98381 3.9803C9.22837 4.57033 9.29251 5.21962 9.16812 5.8461C9.04373 6.47258 8.73639 7.04811 8.28496 7.49995ZM4.49996 3.70495C4.09632 4.10984 3.86966 4.65824 3.86966 5.22995C3.86966 5.80167 4.09632 6.35007 4.49996 6.75495C4.79985 7.05535 5.18176 7.26049 5.59779 7.34466C6.01382 7.42882 6.44544 7.38825 6.8385 7.22803C7.23156 7.06782 7.56855 6.79509 7.8072 6.44408C8.04585 6.09306 8.17553 5.67939 8.17996 5.25495C8.18222 4.97156 8.12763 4.69058 8.01942 4.42865C7.91121 4.16671 7.75158 3.92913 7.54996 3.72995C7.3518 3.52724 7.1155 3.36572 6.85468 3.25469C6.59385 3.14365 6.31363 3.08529 6.03016 3.08297C5.74669 3.08065 5.46556 3.1344 5.20295 3.24115C4.94034 3.34789 4.70142 3.50552 4.49996 3.70495ZM6.84496 6.04495C6.65549 6.23733 6.40507 6.35791 6.13653 6.38608C5.86799 6.41426 5.598 6.34827 5.37272 6.19942C5.14744 6.05056 4.98086 5.82808 4.90147 5.57C4.82207 5.31192 4.83479 5.03427 4.93744 4.78453C5.0401 4.53479 5.22631 4.32846 5.46426 4.20082C5.7022 4.07318 5.97709 4.03216 6.24193 4.08476C6.50677 4.13737 6.74512 4.28033 6.91622 4.48922C7.08732 4.69811 7.18055 4.95994 7.17996 5.22995C7.17269 5.53859 7.04321 5.83172 6.81996 6.04495H6.84496Z" fill="white"/>
</svg>
