<svg width="52" height="18" viewBox="0 0 52 18" fill="none" xmlns="http://www.w3.org/2000/svg">
<path d="M5.328 13L3.336 9.58H2.016V13H0.924V4.636H3.624C4.256 4.636 4.788 4.744 5.22 4.96C5.66 5.176 5.988 5.468 6.204 5.836C6.42 6.204 6.528 6.624 6.528 7.096C6.528 7.672 6.36 8.18 6.024 8.62C5.696 9.06 5.2 9.352 4.536 9.496L6.636 13H5.328ZM2.016 8.704H3.624C4.216 8.704 4.66 8.56 4.956 8.272C5.252 7.976 5.4 7.584 5.4 7.096C5.4 6.6 5.252 6.216 4.956 5.944C4.668 5.672 4.224 5.536 3.624 5.536H2.016V8.704ZM8.17678 9.688C8.17678 9.016 8.31278 8.428 8.58478 7.924C8.85678 7.412 9.22878 7.016 9.70078 6.736C10.1808 6.456 10.7128 6.316 11.2968 6.316C11.8728 6.316 12.3728 6.44 12.7968 6.688C13.2208 6.936 13.5368 7.248 13.7448 7.624V6.424H14.8488V13H13.7448V11.776C13.5288 12.16 13.2048 12.48 12.7728 12.736C12.3488 12.984 11.8528 13.108 11.2848 13.108C10.7008 13.108 10.1728 12.964 9.70078 12.676C9.22878 12.388 8.85678 11.984 8.58478 11.464C8.31278 10.944 8.17678 10.352 8.17678 9.688ZM13.7448 9.7C13.7448 9.204 13.6448 8.772 13.4448 8.404C13.2448 8.036 12.9728 7.756 12.6288 7.564C12.2928 7.364 11.9208 7.264 11.5128 7.264C11.1048 7.264 10.7328 7.36 10.3968 7.552C10.0608 7.744 9.79278 8.024 9.59278 8.392C9.39278 8.76 9.29278 9.192 9.29278 9.688C9.29278 10.192 9.39278 10.632 9.59278 11.008C9.79278 11.376 10.0608 11.66 10.3968 11.86C10.7328 12.052 11.1048 12.148 11.5128 12.148C11.9208 12.148 12.2928 12.052 12.6288 11.86C12.9728 11.66 13.2448 11.376 13.4448 11.008C13.6448 10.632 13.7448 10.196 13.7448 9.7ZM18.3862 7.324V11.2C18.3862 11.52 18.4542 11.748 18.5902 11.884C18.7262 12.012 18.9622 12.076 19.2982 12.076H20.1022V13H19.1182C18.5102 13 18.0542 12.86 17.7502 12.58C17.4462 12.3 17.2942 11.84 17.2942 11.2V7.324H16.4422V6.424H17.2942V4.768H18.3862V6.424H20.1022V7.324H18.3862ZM22.3492 5.356C22.1412 5.356 21.9652 5.284 21.8212 5.14C21.6772 4.996 21.6052 4.82 21.6052 4.612C21.6052 4.404 21.6772 4.228 21.8212 4.084C21.9652 3.94 22.1412 3.868 22.3492 3.868C22.5492 3.868 22.7172 3.94 22.8533 4.084C22.9973 4.228 23.0693 4.404 23.0693 4.612C23.0693 4.82 22.9973 4.996 22.8533 5.14C22.7172 5.284 22.5492 5.356 22.3492 5.356ZM22.8773 6.424V13H21.7853V6.424H22.8773ZM28.3024 6.304C29.1024 6.304 29.7504 6.548 30.2464 7.036C30.7424 7.516 30.9904 8.212 30.9904 9.124V13H29.9104V9.28C29.9104 8.624 29.7464 8.124 29.4184 7.78C29.0904 7.428 28.6424 7.252 28.0744 7.252C27.4984 7.252 27.0384 7.432 26.6944 7.792C26.3584 8.152 26.1904 8.676 26.1904 9.364V13H25.0984V6.424H26.1904V7.36C26.4064 7.024 26.6984 6.764 27.0664 6.58C27.4424 6.396 27.8544 6.304 28.3024 6.304ZM35.8462 6.316C36.4142 6.316 36.9102 6.44 37.3342 6.688C37.7662 6.936 38.0862 7.248 38.2942 7.624V6.424H39.3982V13.144C39.3982 13.744 39.2702 14.276 39.0142 14.74C38.7582 15.212 38.3902 15.58 37.9102 15.844C37.4382 16.108 36.8862 16.24 36.2542 16.24C35.3902 16.24 34.6702 16.036 34.0942 15.628C33.5182 15.22 33.1782 14.664 33.0742 13.96H34.1542C34.2742 14.36 34.5222 14.68 34.8982 14.92C35.2742 15.168 35.7262 15.292 36.2542 15.292C36.8542 15.292 37.3422 15.104 37.7182 14.728C38.1022 14.352 38.2942 13.824 38.2942 13.144V11.764C38.0782 12.148 37.7582 12.468 37.3342 12.724C36.9102 12.98 36.4142 13.108 35.8462 13.108C35.2622 13.108 34.7302 12.964 34.2502 12.676C33.7782 12.388 33.4062 11.984 33.1342 11.464C32.8622 10.944 32.7262 10.352 32.7262 9.688C32.7262 9.016 32.8622 8.428 33.1342 7.924C33.4062 7.412 33.7782 7.016 34.2502 6.736C34.7302 6.456 35.2622 6.316 35.8462 6.316ZM38.2942 9.7C38.2942 9.204 38.1942 8.772 37.9942 8.404C37.7942 8.036 37.5222 7.756 37.1782 7.564C36.8422 7.364 36.4702 7.264 36.0622 7.264C35.6542 7.264 35.2822 7.36 34.9462 7.552C34.6102 7.744 34.3422 8.024 34.1422 8.392C33.9422 8.76 33.8422 9.192 33.8422 9.688C33.8422 10.192 33.9422 10.632 34.1422 11.008C34.3422 11.376 34.6102 11.66 34.9462 11.86C35.2822 12.052 35.6542 12.148 36.0622 12.148C36.4702 12.148 36.8422 12.052 37.1782 11.86C37.5222 11.66 37.7942 11.376 37.9942 11.008C38.1942 10.632 38.2942 10.196 38.2942 9.7Z" fill="#C4C4C4"/>
<path d="M46 8L49 11L52 8H46Z" fill="#C4C4C4"/>
</svg>
