<svg width="9" height="11" viewBox="0 0 9 11" fill="none" xmlns="http://www.w3.org/2000/svg">
<path d="M8.79187 0.906879C8.72652 0.855175 8.65016 0.818452 8.56839 0.79941C8.48662 0.780368 8.40153 0.779492 8.31937 0.796845C7.71831 0.920052 7.09782 0.921622 6.4961 0.801457C5.89439 0.681292 5.3242 0.441937 4.82062 0.0981262C4.72646 0.0342361 4.6146 0 4.5 0C4.3854 0 4.27354 0.0342361 4.17938 0.0981262C3.6758 0.441937 3.10561 0.681292 2.5039 0.801457C1.90218 0.921622 1.28169 0.920052 0.680628 0.796845C0.598468 0.779492 0.513377 0.780368 0.43161 0.79941C0.349842 0.818452 0.273477 0.855175 0.208128 0.906879C0.142866 0.958661 0.0902962 1.02409 0.0542801 1.09835C0.0182641 1.17261 -0.000282482 1.25382 3.25208e-06 1.33601V5.4348C-0.00049683 6.22361 0.191688 7.00112 0.560554 7.70258C0.929419 8.40405 1.46429 9.00917 2.12063 9.46756L4.17375 10.898C4.26902 10.9643 4.38305 11 4.5 11C4.61695 11 4.73098 10.9643 4.82625 10.898L6.87937 9.46756C7.53571 9.00917 8.07058 8.40405 8.43945 7.70258C8.80831 7.00112 9.0005 6.22361 9 5.4348V1.33601C9.00028 1.25382 8.98174 1.17261 8.94572 1.09835C8.9097 1.02409 8.85713 0.958661 8.79187 0.906879ZM7.875 5.4348C7.87543 6.0481 7.7261 6.65265 7.43943 7.19811C7.15276 7.74357 6.73704 8.21418 6.22687 8.57078L4.5 9.77566L2.77313 8.57078C2.26296 8.21418 1.84724 7.74357 1.56057 7.19811C1.2739 6.65265 1.12457 6.0481 1.125 5.4348V1.96871C2.30424 2.06743 3.48527 1.79982 4.5 1.20397C5.51473 1.79982 6.69576 2.06743 7.875 1.96871V5.4348ZM5.36625 4.1749L3.85313 5.66037L3.3525 5.16521C3.24658 5.06161 3.10292 5.00341 2.95313 5.00341C2.80333 5.00341 2.65967 5.06161 2.55375 5.16521C2.44783 5.26881 2.38833 5.40932 2.38833 5.55583C2.38833 5.70235 2.44783 5.84286 2.55375 5.94646L3.45375 6.82673C3.50604 6.8783 3.56826 6.91923 3.6368 6.94716C3.70535 6.97509 3.77887 6.98947 3.85313 6.98947C3.92738 6.98947 4.0009 6.97509 4.06945 6.94716C4.138 6.91923 4.20021 6.8783 4.2525 6.82673L6.1875 4.95065C6.29342 4.84705 6.35292 4.70653 6.35292 4.56002C6.35292 4.41351 6.29342 4.273 6.1875 4.1694C6.08158 4.0658 5.93792 4.0076 5.78812 4.0076C5.63833 4.0076 5.49467 4.0658 5.38875 4.1694L5.36625 4.1749Z" fill="white"/>
</svg>
