<svg width="63" height="12" viewBox="0 0 63 12" fill="none" xmlns="http://www.w3.org/2000/svg">
<path d="M6.04007 0.561279L7.28601 4.39591H11.318L8.05605 6.76584L9.302 10.6005L6.04007 8.23054L2.77814 10.6005L4.02408 6.76584L0.762153 4.39591H4.79412L6.04007 0.561279Z" fill="#A14807"/>
<path d="M18.8467 0.561279L20.0927 4.39591H24.1246L20.8627 6.76584L22.1086 10.6005L18.8467 8.23054L15.5848 10.6005L16.8307 6.76584L13.5688 4.39591H17.6008L18.8467 0.561279Z" fill="#A14807"/>
<path d="M31.6533 0.561279L32.8992 4.39591H36.9312L33.6693 6.76584L34.9152 10.6005L31.6533 8.23054L28.3914 10.6005L29.6373 6.76584L26.3754 4.39591H30.4073L31.6533 0.561279Z" fill="#A14807"/>
<path d="M44.4599 0.561279L45.7058 4.39591H49.7378L46.4759 6.76584L47.7218 10.6005L44.4599 8.23054L41.198 10.6005L42.4439 6.76584L39.182 4.39591H43.214L44.4599 0.561279Z" fill="#A14807"/>
<path d="M57.2665 0.561279L58.5125 4.39591H62.5444L59.2825 6.76584L60.5284 10.6005L57.2665 8.23054L54.0046 10.6005L55.2505 6.76584L51.9886 4.39591H56.0206L57.2665 0.561279Z" fill="#C4C4C4"/>
</svg>
