<svg width="14" height="14" viewBox="0 0 14 14" fill="none" xmlns="http://www.w3.org/2000/svg">
<path d="M12.4892 5.04003C12.4892 5.04003 12.4892 5.04003 12.4892 5.01087C12.0782 3.88866 11.3324 2.91978 10.3527 2.23529C9.37307 1.55079 8.2068 1.18372 7.0117 1.18372C5.81659 1.18372 4.65033 1.55079 3.67066 2.23529C2.691 2.91978 1.94522 3.88866 1.5342 5.01087C1.5342 5.01087 1.5342 5.01087 1.5342 5.04003C1.07519 6.30639 1.07519 7.69368 1.5342 8.96003C1.5342 8.96003 1.5342 8.96003 1.5342 8.9892C1.94522 10.1114 2.691 11.0803 3.67066 11.7648C4.65033 12.4493 5.81659 12.8163 7.0117 12.8163C8.2068 12.8163 9.37307 12.4493 10.3527 11.7648C11.3324 11.0803 12.0782 10.1114 12.4892 8.9892C12.4892 8.9892 12.4892 8.9892 12.4892 8.96003C12.9482 7.69368 12.9482 6.30639 12.4892 5.04003ZM2.48503 8.1667C2.28275 7.40207 2.28275 6.59799 2.48503 5.83337H3.57003C3.47672 6.60835 3.47672 7.39172 3.57003 8.1667H2.48503ZM2.96337 9.33337H3.78003C3.91695 9.85361 4.11266 10.3566 4.36337 10.8325C3.79129 10.4428 3.31307 9.93073 2.96337 9.33337ZM3.78003 4.6667H2.96337C3.30804 4.07117 3.78014 3.55922 4.34587 3.16753C4.10119 3.64426 3.91136 4.14719 3.78003 4.6667ZM6.4167 11.4917C5.70023 10.9659 5.19703 10.1998 4.9992 9.33337H6.4167V11.4917ZM6.4167 8.1667H4.74837C4.63951 7.39273 4.63951 6.60734 4.74837 5.83337H6.4167V8.1667ZM6.4167 4.6667H4.9992C5.19703 3.80031 5.70023 3.03414 6.4167 2.50837V4.6667ZM11.0367 4.6667H10.22C10.0831 4.14646 9.88741 3.6435 9.6367 3.16753C10.2088 3.55724 10.687 4.06933 11.0367 4.6667ZM7.58336 2.50837C8.29983 3.03414 8.80303 3.80031 9.00086 4.6667H7.58336V2.50837ZM7.58336 11.4917V9.33337H9.00086C8.80303 10.1998 8.29983 10.9659 7.58336 11.4917ZM9.2517 8.1667H7.58336V5.83337H9.2517C9.36055 6.60734 9.36055 7.39273 9.2517 8.1667ZM9.6542 10.8325C9.90491 10.3566 10.1006 9.85361 10.2375 9.33337H11.0542C10.7045 9.93073 10.2263 10.4428 9.6542 10.8325ZM11.515 8.1667H10.43C10.4775 7.77963 10.5009 7.39 10.5 7.00003C10.5007 6.61008 10.4773 6.22045 10.43 5.83337H11.515C11.7173 6.59799 11.7173 7.40207 11.515 8.1667Z" fill="white"/>
</svg>
